<?xml version="1.0" standalone="no"?>
<!DOCTYPE svg PUBLIC "-//W3C//DTD SVG 20010904//EN"
 "http://www.w3.org/TR/2001/REC-SVG-20010904/DTD/svg10.dtd">
<svg version="1.0" xmlns="http://www.w3.org/2000/svg"
 width="1684.000000pt" height="1387.000000pt" viewBox="0 0 1684.000000 1387.000000"
 preserveAspectRatio="xMidYMid meet">

<g transform="translate(0.000000,1387.000000) scale(0.100000,-0.100000)"
fill="#000000" stroke="none">
<path d="M3475 13860 c-597 -27 -1264 -121 -1915 -271 -625 -144 -893 -269
-1148 -533 -114 -119 -193 -233 -279 -401 -129 -255 -161 -424 -108 -578 61
-174 357 -281 815 -294 331 -9 508 37 566 149 35 67 -1 188 -74 248 -85 70
-180 98 -417 125 -168 19 -238 32 -282 53 -38 18 -40 23 -15 44 35 32 102 57
279 107 430 122 850 175 1613 202 1430 51 3184 -200 4735 -677 1042 -321 1880
-652 2730 -1079 885 -445 1559 -855 2225 -1351 744 -554 1295 -1067 1790
-1664 407 -490 787 -1125 995 -1658 231 -595 287 -1074 189 -1612 -136 -742
-547 -1346 -1229 -1808 -244 -165 -666 -388 -945 -500 -691 -277 -1584 -450
-2540 -492 -335 -15 -952 -12 -1170 5 -512 39 -729 66 -1084 132 -172 32 -199
40 -206 58 -4 11 -10 173 -14 360 -4 187 -17 891 -31 1565 -13 674 -27 1380
-31 1569 l-7 344 174 -7 c767 -31 1380 -107 2152 -267 466 -97 779 -179 1087
-284 259 -89 391 -182 425 -299 32 -110 4 -179 -124 -307 -95 -95 -166 -144
-346 -239 -166 -87 -214 -118 -230 -151 -30 -58 -14 -113 46 -155 77 -53 317
-116 547 -143 245 -30 544 63 783 243 315 238 529 619 529 947 0 148 -48 352
-120 506 -170 366 -567 724 -1030 933 -458 206 -1209 403 -2002 525 -563 86
-689 95 -1365 95 l-543 0 0 115 c0 182 -19 604 -36 795 -61 703 -180 1205
-371 1570 -83 158 -166 264 -277 354 -81 66 -128 86 -200 86 -96 0 -139 -39
-195 -181 -97 -243 -175 -651 -251 -1309 -63 -556 -71 -640 -80 -950 -14 -482
-20 -592 -35 -616 -16 -25 -77 -39 -385 -89 -395 -64 -560 -101 -932 -211
-900 -265 -1434 -488 -1888 -789 -166 -111 -264 -191 -390 -321 -212 -219
-306 -425 -317 -692 -6 -145 6 -239 49 -367 108 -323 457 -799 904 -1235 121
-118 487 -436 726 -632 192 -158 398 -308 663 -483 434 -287 750 -468 1221
-700 l311 -154 12 -118 c78 -747 143 -986 321 -1163 170 -168 390 -228 689
-185 290 42 401 125 475 354 42 128 56 226 56 376 0 63 4 116 10 120 5 3 121
-19 257 -49 602 -133 1013 -196 1553 -238 223 -17 1098 -17 1330 0 549 40 991
109 1515 237 934 227 1714 557 2369 1002 353 240 637 513 953 918 208 267 307
426 482 775 116 233 147 306 204 475 66 201 105 344 126 465 49 278 75 808 52
1031 -23 214 -100 588 -158 764 -48 147 -134 359 -200 495 -36 74 -107 221
-157 325 -276 571 -675 1137 -1271 1805 -314 352 -806 821 -1255 1197 -340
285 -1176 896 -1513 1107 -720 449 -1526 881 -2216 1188 -1940 862 -3892 1382
-5551 1478 -244 14 -810 20 -1025 10z m2934 -8382 c-10 -595 -10 -1630 1
-2322 6 -357 8 -651 5 -654 -8 -8 -304 99 -525 191 -485 200 -929 442 -1507
823 -395 260 -628 443 -921 723 -377 360 -482 499 -498 660 -4 32 -1 75 6 100
22 84 152 192 330 274 357 165 1269 373 2067 471 242 30 880 90 1013 95 l35 1
-6 -362z"/>
</g>
</svg>
